<svg width="186" height="134" viewBox="0 0 186 134" fill="none" xmlns="http://www.w3.org/2000/svg">
<path d="M8.06076 67.5623C10.0753 63.5093 11.2147 59.9791 10.6057 59.6775C9.99663 59.3758 7.86982 62.4169 5.85528 66.4699C3.84074 70.5229 2.70136 74.0531 3.31038 74.3547C3.91941 74.6564 6.04623 71.6153 8.06076 67.5623Z" fill="#E0E0E0"/>
<path d="M110.254 118.226C112.268 114.173 113.566 110.721 113.152 110.516C112.738 110.311 110.77 113.431 108.755 117.484C106.741 121.537 105.443 124.989 105.857 125.194C106.27 125.399 108.239 122.279 110.254 118.226Z" fill="#E0E0E0"/>
<path d="M55.338 97.7367L51.541 94.607L41.0902 107.241L44.8872 110.371L55.338 97.7367Z" fill="#F55F44"/>
<path opacity="0.05" d="M46.6066 111.379L51.9999 112.645L55.7566 96.6949L50.3633 95.4291L46.6066 111.379Z" fill="black"/>
<path d="M47.2065 111.52L51.9999 112.645L55.7566 96.6949L50.9632 95.5699L47.2065 111.52Z" fill="#F55F44"/>
<path d="M10.7881 59.3105L3.12805 74.7216L105.683 125.516L113.343 110.105L10.7881 59.3105Z" fill="url(#paint0_linear)"/>
<path d="M105.865 125.15C103.858 124.188 1.8401 73.6265 3.31042 74.3547C8.9727 65.7276 10.6057 59.6775 10.6057 59.6775L113.16 110.472C113.16 110.472 109.559 116.782 105.865 125.15Z" fill="#F5F5F5"/>
<path opacity="0.05" d="M63.9048 86.0762L55.4504 81.8888L48.1552 96.5661L56.6095 100.753L63.9048 86.0762Z" fill="black"/>
<path d="M63.5372 85.8942L55.818 82.0709L48.5227 96.7482L56.2419 100.571L63.5372 85.8942Z" fill="#F55F44"/>
<path opacity="0.05" d="M62.0669 85.1659L56.9208 82.6171L49.6255 97.2943L54.7716 99.8432L62.0669 85.1659Z" fill="black"/>
<path d="M61.6993 84.9839L57.2883 82.7991L49.993 97.4764L54.404 99.6611L61.6993 84.9839Z" fill="#F55F44"/>
<path d="M61.1053 132.322C61.4831 132.322 61.7895 132.016 61.7895 131.639C61.7895 131.262 61.4831 130.956 61.1053 130.956C60.7274 130.956 60.4211 131.262 60.4211 131.639C60.4211 132.016 60.7274 132.322 61.1053 132.322Z" fill="#DBDBDB"/>
<g opacity="0.5">
<path opacity="0.5" d="M7.57532 112.515H6.87378V116.484H7.57532V112.515Z" fill="#47E6B1"/>
<path opacity="0.5" d="M9.21216 114.85V114.149H5.23677V114.85H9.21216Z" fill="#47E6B1"/>
</g>
<g opacity="0.5">
<path opacity="0.5" d="M184.363 63.0272H183.662V66.9956H184.363V63.0272Z" fill="#47E6B1"/>
<path opacity="0.5" d="M186 65.3615V64.6612H182.025V65.3615H186Z" fill="#47E6B1"/>
</g>
<g opacity="0.5">
<path opacity="0.5" d="M11.7845 13.7726H11.083V17.741H11.7845V13.7726Z" fill="#47E6B1"/>
<path opacity="0.5" d="M13.4214 16.1069V15.4066H9.446V16.1069H13.4214Z" fill="#47E6B1"/>
</g>
<g opacity="0.5">
<path opacity="0.5" d="M163.317 7.70331H162.615V11.6717H163.317V7.70331Z" fill="#47E6B1"/>
<path opacity="0.5" d="M164.954 10.0376V9.33734H160.978V10.0376H164.954Z" fill="#47E6B1"/>
</g>
<path opacity="0.5" d="M2.8739 59.1653C2.68057 59.0813 2.52495 58.9292 2.43666 58.738C2.34837 58.5469 2.33358 58.33 2.3951 58.1287C2.40505 58.0978 2.41132 58.0659 2.41378 58.0335C2.41941 57.9413 2.39512 57.8497 2.34452 57.7723C2.29391 57.6949 2.21968 57.6358 2.13282 57.6039C2.04597 57.5719 1.9511 57.5687 1.86227 57.5947C1.77344 57.6208 1.69538 57.6747 1.63965 57.7485C1.62048 57.7746 1.60448 57.803 1.59197 57.8329C1.50777 58.0259 1.35542 58.1812 1.16392 58.2694C0.972426 58.3575 0.755152 58.3723 0.553456 58.3109C0.522534 58.3009 0.490544 58.2947 0.458153 58.2922C0.365744 58.2866 0.273981 58.3108 0.196456 58.3614C0.118931 58.4119 0.0597674 58.486 0.0277264 58.5727C-0.00431461 58.6594 -0.0075271 58.7541 0.0185632 58.8427C0.0446536 58.9314 0.0986582 59.0093 0.172581 59.065C0.19881 59.0841 0.227208 59.1001 0.257187 59.1126C0.450516 59.1966 0.606137 59.3487 0.694425 59.5399C0.782713 59.731 0.797503 59.9479 0.735984 60.1492C0.726029 60.1801 0.719756 60.2121 0.717297 60.2444C0.711672 60.3366 0.735963 60.4282 0.786567 60.5056C0.837171 60.583 0.9114 60.6421 0.998258 60.6741C1.08512 60.706 1.17999 60.7092 1.26881 60.6832C1.35764 60.6572 1.4357 60.6032 1.49144 60.5294C1.5106 60.5033 1.52661 60.4749 1.53912 60.445C1.62332 60.252 1.77566 60.0967 1.96716 60.0085C2.15866 59.9204 2.37593 59.9056 2.57763 59.967C2.60855 59.977 2.64054 59.9832 2.67293 59.9857C2.76534 59.9913 2.8571 59.9671 2.93463 59.9165C3.01216 59.866 3.07132 59.7919 3.10336 59.7052C3.1354 59.6185 3.13862 59.5238 3.11253 59.4352C3.08644 59.3465 3.03243 59.2686 2.9585 59.2129C2.93227 59.1938 2.90387 59.1778 2.8739 59.1653Z" fill="#4D8AF0"/>
<path opacity="0.5" d="M43.0955 13.1788C42.9021 13.0948 42.7465 12.9427 42.6582 12.7515C42.5699 12.5604 42.5551 12.3435 42.6167 12.1422C42.6266 12.1113 42.6329 12.0793 42.6353 12.047C42.641 11.9548 42.6167 11.8632 42.5661 11.7858C42.5155 11.7084 42.4412 11.6493 42.3544 11.6173C42.2675 11.5854 42.1727 11.5821 42.0838 11.6082C41.995 11.6342 41.9169 11.6882 41.8612 11.7619C41.842 11.7881 41.826 11.8165 41.8135 11.8464C41.7293 12.0394 41.577 12.1947 41.3855 12.2829C41.194 12.371 40.9767 12.3858 40.775 12.3244C40.7441 12.3144 40.7121 12.3082 40.6797 12.3057C40.5873 12.3001 40.4955 12.3243 40.418 12.3749C40.3405 12.4254 40.2813 12.4995 40.2493 12.5862C40.2172 12.6729 40.214 12.7676 40.2401 12.8562C40.2662 12.9449 40.3202 13.0228 40.3941 13.0785C40.4204 13.0976 40.4488 13.1136 40.4787 13.1261C40.6721 13.2101 40.8277 13.3622 40.916 13.5534C41.0043 13.7445 41.0191 13.9614 40.9575 14.1628C40.9476 14.1936 40.9413 14.2256 40.9389 14.2579C40.9332 14.3501 40.9575 14.4417 41.0081 14.5191C41.0587 14.5965 41.133 14.6556 41.2198 14.6876C41.3067 14.7195 41.4015 14.7228 41.4904 14.6967C41.5792 14.6707 41.6573 14.6167 41.713 14.543C41.7322 14.5168 41.7482 14.4884 41.7607 14.4585C41.8449 14.2655 41.9972 14.1102 42.1887 14.022C42.3802 13.9339 42.5975 13.9191 42.7992 13.9805C42.8301 13.9905 42.8621 13.9967 42.8945 13.9992C42.9869 14.0048 43.0787 13.9806 43.1562 13.9301C43.2337 13.8795 43.2929 13.8054 43.3249 13.7187C43.357 13.632 43.3602 13.5373 43.3341 13.4487C43.308 13.36 43.254 13.2821 43.1801 13.2264C43.1538 13.2073 43.1254 13.1913 43.0955 13.1788Z" fill="#4D8AF0"/>
<path opacity="0.5" d="M92.2031 132.464C92.0098 132.38 91.8542 132.227 91.7659 132.036C91.6776 131.845 91.6628 131.628 91.7243 131.427C91.7343 131.396 91.7405 131.364 91.743 131.332C91.7486 131.24 91.7243 131.148 91.6737 131.071C91.6231 130.993 91.5489 130.934 91.462 130.902C91.3752 130.87 91.2803 130.867 91.1915 130.893C91.1027 130.919 91.0246 130.973 90.9689 131.047C90.9497 131.073 90.9337 131.101 90.9212 131.131C90.837 131.324 90.6846 131.48 90.4931 131.568C90.3017 131.656 90.0844 131.671 89.8827 131.609C89.8518 131.599 89.8198 131.593 89.7874 131.59C89.695 131.585 89.6032 131.609 89.5257 131.66C89.4482 131.71 89.389 131.784 89.3569 131.871C89.3249 131.958 89.3217 132.052 89.3478 132.141C89.3739 132.23 89.4279 132.308 89.5018 132.363C89.528 132.382 89.5564 132.398 89.5864 132.411C89.7797 132.495 89.9354 132.647 90.0236 132.838C90.1119 133.029 90.1267 133.246 90.0652 133.448C90.0553 133.478 90.049 133.51 90.0465 133.543C90.0409 133.635 90.0652 133.727 90.1158 133.804C90.1664 133.881 90.2406 133.94 90.3275 133.972C90.4143 134.004 90.5092 134.008 90.598 133.981C90.6869 133.955 90.7649 133.902 90.8207 133.828C90.8398 133.802 90.8558 133.773 90.8683 133.743C90.9525 133.55 91.1049 133.395 91.2964 133.307C91.4879 133.219 91.7051 133.204 91.9068 133.265C91.9378 133.275 91.9698 133.282 92.0022 133.284C92.0946 133.29 92.1863 133.265 92.2638 133.215C92.3414 133.164 92.4005 133.09 92.4326 133.004C92.4646 132.917 92.4678 132.822 92.4417 132.733C92.4156 132.645 92.3616 132.567 92.2877 132.511C92.2615 132.492 92.2331 132.476 92.2031 132.464Z" fill="#4D8AF0"/>
<path opacity="0.5" d="M177.582 105.045C178.356 105.045 178.985 104.418 178.985 103.645C178.985 102.871 178.356 102.244 177.582 102.244C176.807 102.244 176.178 102.871 176.178 103.645C176.178 104.418 176.807 105.045 177.582 105.045Z" fill="#F55F44"/>
<path opacity="0.5" d="M146.714 113.916C147.489 113.916 148.117 113.289 148.117 112.515C148.117 111.742 147.489 111.115 146.714 111.115C145.939 111.115 145.311 111.742 145.311 112.515C145.311 113.289 145.939 113.916 146.714 113.916Z" fill="#4D8AF0"/>
<path opacity="0.5" d="M24.1783 127.688C24.9532 127.688 25.5814 127.061 25.5814 126.288C25.5814 125.514 24.9532 124.887 24.1783 124.887C23.4034 124.887 22.7753 125.514 22.7753 126.288C22.7753 127.061 23.4034 127.688 24.1783 127.688Z" fill="#47E6B1"/>
<path opacity="0.5" d="M96.203 2.80121C96.9779 2.80121 97.6061 2.17414 97.6061 1.4006C97.6061 0.627072 96.9779 0 96.203 0C95.4281 0 94.7999 0.627072 94.7999 1.4006C94.7999 2.17414 95.4281 2.80121 96.203 2.80121Z" fill="#F55F44"/>
<path d="M47.9138 83.4527L42.3015 91.8563C42.3015 91.8563 44.1723 100.493 85.5631 100.26C126.954 100.026 130.228 91.8563 130.228 91.8563L122.511 80.6515L98.8923 64.5445L47.9138 83.4527Z" fill="#333333"/>
<path opacity="0.15" d="M47.9138 83.4527L42.3015 91.8563C42.3015 91.8563 44.1723 100.493 85.5631 100.26C126.954 100.026 130.228 91.8563 130.228 91.8563L122.511 80.6515L98.8923 64.5445L47.9138 83.4527Z" fill="black"/>
<path d="M167.292 52.2892L93.6306 84.7366L3.83362 52.2892L86.1475 14.9398L126.554 33.5375L128.001 34.2051L167.292 52.2892Z" fill="#333333"/>
<path opacity="0.15" d="M167.292 52.2892L93.6306 84.7366L3.83362 52.2892L86.1475 14.9398L126.554 33.5375L128.001 34.2051L167.292 52.2892Z" fill="black"/>
<path d="M129.526 60.0672L128.123 60.1513L126.554 33.5375L128.001 34.2051L129.526 60.0672Z" fill="#F5F5F5"/>
<path d="M48.8492 52.1725L42.3015 91.8563C42.3015 91.8563 89.3046 76.6831 130.228 91.8563L124.148 49.8382C124.148 49.8382 69.1938 43.0686 48.8492 52.1725Z" fill="#333333"/>
<path d="M129.409 68.1627C133.155 68.1627 136.191 66.0725 136.191 63.4941C136.191 60.9156 133.155 58.8254 129.409 58.8254C125.664 58.8254 122.628 60.9156 122.628 63.4941C122.628 66.0725 125.664 68.1627 129.409 68.1627Z" fill="#F5F5F5"/>
<defs>
<linearGradient id="paint0_linear" x1="54.4054" y1="100.119" x2="62.0438" y2="84.6972" gradientUnits="userSpaceOnUse">
<stop stop-color="#808080" stop-opacity="0.25"/>
<stop offset="0.53514" stop-color="#808080" stop-opacity="0.12"/>
<stop offset="1" stop-color="#808080" stop-opacity="0.1"/>
</linearGradient>
</defs>
</svg>
